<svg viewBox="0 0 26 26" xmlns="http://www.w3.org/2000/svg">
<mask id="mask0_2303_19821" style="mask-type:alpha" maskUnits="userSpaceOnUse" x="0" y="0" width="26" height="26">
<rect width="26" height="26"/>
</mask>
<g mask="url(#mask0_2303_19821)">
<path d="M12.2762 18.3757C10.4262 18.3757 8.85957 17.7341 7.57618 16.4509C6.29297 15.1675 5.65137 13.6008 5.65137 11.7508C5.65137 9.90086 6.29297 8.33418 7.57618 7.05079C8.85957 5.76758 10.4262 5.12598 12.2762 5.12598C14.1262 5.12598 15.6929 5.76758 16.9763 7.05079C18.2595 8.33418 18.9011 9.90086 18.9011 11.7508C18.9011 12.5245 18.7713 13.2634 18.5116 13.9676C18.2518 14.6718 17.9052 15.2842 17.4719 15.8049L20.0731 18.5846C20.2232 18.7345 20.2999 18.923 20.3033 19.1501C20.3067 19.3772 20.23 19.5693 20.0731 19.7262C19.9162 19.8831 19.7259 19.9615 19.5022 19.9615C19.2787 19.9615 19.0884 19.8831 18.9315 19.7262L16.3303 16.9465C15.7887 17.3937 15.1657 17.7437 14.4616 17.9965C13.7574 18.2493 13.029 18.3757 12.2762 18.3757ZM12.2762 16.751C13.6721 16.751 14.8544 16.2665 15.8231 15.2977C16.7919 14.329 17.2763 13.1467 17.2763 11.7508C17.2763 10.355 16.7919 9.17268 15.8231 8.204C14.8544 7.23514 13.6721 6.75071 12.2762 6.75071C10.8803 6.75071 9.69807 7.23514 8.72939 8.204C7.76053 9.17268 7.2761 10.355 7.2761 11.7508C7.2761 13.1467 7.76053 14.329 8.72939 15.2977C9.69807 16.2665 10.8803 16.751 12.2762 16.751Z" fill="white"/>
</g>
</svg>
