<svg viewBox="0 0 744 211" fill="none" xmlns="http://www.w3.org/2000/svg">
  <path
    d="M210.898 0L105.628 105.447C122.881 156.475 140.988 207.881 210.898 207.881V210.898H0L105.628 105.447C88.3739 54.4204 69.9095 3.01701 0 3.01701V0H210.898Z"
  />
  <path
    d="M366.25 58.6749C358.126 59.3121 353.984 62.8168 344.266 76.8356L320.689 112.838V143.744C320.848 156.01 322.919 157.762 337.098 158.081V161.108H288.35V158.081C302.847 157.444 304.281 156.01 304.44 141.991V114.272L283.571 83.6857C267.641 61.2238 265.41 58.9935 257.764 58.6749V55.6481H302.369V58.6749C300.617 58.8342 299.024 58.8342 298.386 58.8342C293.289 59.1528 291.058 60.4273 291.058 63.454C291.058 65.2064 292.014 67.9146 293.767 70.4635L317.344 105.829L340.124 69.8262C341.717 67.4367 342.355 65.525 342.355 63.932C342.355 60.1087 339.646 58.8342 331.363 58.6749V55.6481H366.25V58.6749Z"
  />
  <path
    d="M381.712 158.081C395.094 157.603 397.006 155.851 397.165 143.744V73.0123C397.006 61.0645 395.253 59.4714 381.712 58.6749V55.6481H429.026V58.6749C415.804 59.1528 413.733 61.0645 413.414 73.0123V143.744C413.733 155.532 415.963 157.762 429.026 158.081V161.108H381.712V158.081Z"
  />
  <path
    d="M553.771 58.6749C543.576 59.3121 540.389 61.2238 530.035 73.6495L506.776 102.643L537.363 146.292C544.213 155.532 546.602 157.125 555.045 158.081V161.108H507.732V158.081C509.644 157.922 511.396 157.762 512.033 157.762C517.45 157.603 519.998 156.01 519.998 153.143C519.998 150.753 517.29 145.496 511.874 137.531L496.74 115.228L477.783 138.805C471.888 146.133 469.499 150.116 469.499 152.505C469.499 156.169 472.366 157.444 481.606 158.081V161.108H444.488V158.081C452.613 157.444 453.409 156.807 467.587 139.92L492.598 109.174L475.234 83.6857C459.622 61.5424 456.754 59.1528 446.4 58.6749V55.6481H494.51V58.6749L490.049 58.8342C484.792 58.9935 482.403 60.268 482.403 63.454C482.403 66.9587 486.226 73.6496 495.943 87.3497L502.634 96.7487L520.636 74.7647C525.415 69.0297 527.008 66.1622 527.008 63.7727C527.008 60.1087 524.459 58.9935 515.857 58.6749V55.6481H553.771V58.6749Z"
  />
  <path
    d="M570.508 158.081C583.889 157.603 585.801 155.851 585.96 143.744V73.0123C585.801 61.0645 584.049 59.4714 570.508 58.6749V55.6481H617.821V58.6749C604.599 59.1528 602.528 61.0645 602.209 73.0123V143.744C602.528 155.532 604.758 157.762 617.821 158.081V161.108H570.508V158.081Z"
  />
  <path
    d="M744 58.6749C731.415 59.79 729.344 62.4982 728.866 79.0659V162.86H726.158L655.745 75.2426V137.69C656.064 154.098 658.453 157.444 670.72 158.081V161.108H633.283V158.081C646.346 157.284 648.417 154.576 648.736 137.69V67.4367C642.364 59.9493 640.133 58.6749 633.283 58.6749V55.6481H660.524L721.857 132.752V79.0659C721.379 62.1796 719.308 59.4714 706.563 58.6749V55.6481H744V58.6749Z"
  />
</svg>